<?xml version="1.0" standalone="no"?>
<!DOCTYPE svg PUBLIC "-//W3C//DTD SVG 1.1//EN"
"http://www.w3.org/Graphics/SVG/1.1/DTD/svg11.dtd">

<svg width="318" height="279" view_box="0 0 318 279"
xmlns="http://www.w3.org/2000/svg"
xmlns:link="http://www.w3.org/1999/xlink">\n\n<desc>Généré par Mocodo 2.3.7 le Fri, 14 May 2021 14:16:38</desc>

<rect id="frame" x="0" y="0" width="318" height="279" fill="#ffffbf" stroke="none" stroke-width="0"/>

<!-- Association POSSEDE -->
<line x1="144" y1="43" x2="46" y2="43" stroke="#66c2a5" stroke-width="2"/>
<text x="89" y="60.0" fill="#d53e4f" font-family="Verdana" font-size="12">1,1</text>
<line x1="46" y1="144" x2="46" y2="43" stroke="#66c2a5" stroke-width="2"/>
<text x="51.0" y="85" fill="#d53e4f" font-family="Verdana" font-size="12">0,N</text>
<g id="association-POSSEDE">
	<path d="M 69 18 a 14 14 90 0 1 14 14 V 43 h -74 V 32 a 14 14 90 0 1 14 -14" fill="#abdda4" stroke="#abdda4" stroke-width="0"/>
	<path d="M 83 43.0 v 11 a 14 14 90 0 1 -14 14 H 23 a 14 14 90 0 1 -14 -14 V 43.0 H 74" fill="#e6f598" stroke="#e6f598" stroke-width="0"/>
	<rect x="9" y="18" width="74" height="50" fill="none" rx="14" stroke="#66c2a5" stroke-width="2"/>
	<line x1="9" y1="43" x2="83" y2="43" stroke="#66c2a5" stroke-width="1"/>
	<text x="16" y="35.7" fill="#000000" font-family="Verdana" font-size="12">POSSEDE</text>
</g>

<!-- Association ETIQUETTE -->
<line x1="257" y1="144" x2="257" y2="236" stroke="#66c2a5" stroke-width="2"/>
<text x="262.0" y="203" fill="#d53e4f" font-family="Verdana" font-size="12">0,N</text>
<line x1="144" y1="236" x2="257" y2="236" stroke="#66c2a5" stroke-width="2"/>
<text x="173" y="253.0" fill="#d53e4f" font-family="Verdana" font-size="12">0,N</text>
<g id="association-ETIQUETTE">
	<path d="M 285 211 a 14 14 90 0 1 14 14 V 236 h -84 V 225 a 14 14 90 0 1 14 -14" fill="#abdda4" stroke="#abdda4" stroke-width="0"/>
	<path d="M 299 236.0 v 11 a 14 14 90 0 1 -14 14 H 229 a 14 14 90 0 1 -14 -14 V 236.0 H 84" fill="#e6f598" stroke="#e6f598" stroke-width="0"/>
	<rect x="215" y="211" width="84" height="50" fill="none" rx="14" stroke="#66c2a5" stroke-width="2"/>
	<line x1="215" y1="236" x2="299" y2="236" stroke="#66c2a5" stroke-width="1"/>
	<text x="222" y="228.7" fill="#000000" font-family="Verdana" font-size="12">ETIQUETTE</text>
</g>

<!-- Association APPARTIENT A -->
<line x1="257" y1="144" x2="257" y2="43" stroke="#66c2a5" stroke-width="2"/>
<text x="262.0" y="94" fill="#d53e4f" font-family="Verdana" font-size="12">1,1</text>
<line x1="144" y1="43" x2="257" y2="43" stroke="#66c2a5" stroke-width="2"/>
<text x="178" y="60.0" fill="#d53e4f" font-family="Verdana" font-size="12">0,N</text>
<g id="association-APPARTIENT A">
	<path d="M 295 18 a 14 14 90 0 1 14 14 V 43 h -104 V 32 a 14 14 90 0 1 14 -14" fill="#abdda4" stroke="#abdda4" stroke-width="0"/>
	<path d="M 309 43.0 v 11 a 14 14 90 0 1 -14 14 H 219 a 14 14 90 0 1 -14 -14 V 43.0 H 104" fill="#e6f598" stroke="#e6f598" stroke-width="0"/>
	<rect x="205" y="18" width="104" height="50" fill="none" rx="14" stroke="#66c2a5" stroke-width="2"/>
	<line x1="205" y1="43" x2="309" y2="43" stroke="#66c2a5" stroke-width="1"/>
	<text x="212" y="35.7" fill="#000000" font-family="Verdana" font-size="12">APPARTIENT A</text>
</g>

<!-- Entity LIST -->
<g id="entity-LIST">
	<g id="frame-LIST">
		<rect x="115" y="9" width="58" height="25" fill="#fdae61" stroke="#fdae61" stroke-width="0"/>
		<rect x="115" y="34.0" width="58" height="43" fill="#fee08b" stroke="#fee08b" stroke-width="0"/>
		<rect x="115" y="9" width="58" height="68" fill="none" stroke="#f46d43" stroke-width="2"/>
		<line x1="115" y1="34" x2="173" y2="34" stroke="#f46d43" stroke-width="1"/>
	</g>
	<text x="130" y="26.7" fill="#000000" font-family="Verdana" font-size="12">LIST</text>
	<text x="120" y="51.8" fill="#000000" font-family="Verdana" font-size="12">name</text>
	<line x1="120" y1="54" x2="155" y2="54" stroke="#000000" stroke-width="1"/>
	<text x="120" y="68.8" fill="#000000" font-family="Verdana" font-size="12">position</text>
</g>

<!-- Entity USER -->
<g id="entity-USER">
	<g id="frame-USER">
		<rect x="10" y="93" width="72" height="25" fill="#fdae61" stroke="#fdae61" stroke-width="0"/>
		<rect x="10" y="118.0" width="72" height="77" fill="#fee08b" stroke="#fee08b" stroke-width="0"/>
		<rect x="10" y="93" width="72" height="102" fill="none" stroke="#f46d43" stroke-width="2"/>
		<line x1="10" y1="118" x2="82" y2="118" stroke="#f46d43" stroke-width="1"/>
	</g>
	<text x="29" y="110.7" fill="#000000" font-family="Verdana" font-size="12">USER</text>
	<text x="15" y="135.7" fill="#000000" font-family="Verdana" font-size="12">first name</text>
	<line x1="15" y1="138" x2="77" y2="138" stroke="#000000" stroke-width="1"/>
	<text x="15" y="152.8" fill="#000000" font-family="Verdana" font-size="12">last name</text>
	<text x="15" y="169.8" fill="#000000" font-family="Verdana" font-size="12">email</text>
	<text x="15" y="186.8" fill="#000000" font-family="Verdana" font-size="12">password</text>
</g>

<!-- Entity CARD -->
<g id="entity-CARD">
	<g id="frame-CARD">
		<rect x="228" y="102" width="58" height="25" fill="#fdae61" stroke="#fdae61" stroke-width="0"/>
		<rect x="228" y="127.0" width="58" height="59" fill="#fee08b" stroke="#fee08b" stroke-width="0"/>
		<rect x="228" y="102" width="58" height="84" fill="none" stroke="#f46d43" stroke-width="2"/>
		<line x1="228" y1="127" x2="286" y2="127" stroke="#f46d43" stroke-width="1"/>
	</g>
	<text x="239" y="119.7" fill="#000000" font-family="Verdana" font-size="12">CARD</text>
	<text x="233" y="144.8" fill="#000000" font-family="Verdana" font-size="12">name</text>
	<line x1="233" y1="147" x2="268" y2="147" stroke="#000000" stroke-width="1"/>
	<text x="233" y="161.8" fill="#000000" font-family="Verdana" font-size="12">position</text>
	<text x="233" y="178.8" fill="#000000" font-family="Verdana" font-size="12">status</text>
</g>

<!-- Entity LABEL -->
<g id="entity-LABEL">
	<g id="frame-LABEL">
		<rect x="120" y="202" width="48" height="25" fill="#fdae61" stroke="#fdae61" stroke-width="0"/>
		<rect x="120" y="227.0" width="48" height="43" fill="#fee08b" stroke="#fee08b" stroke-width="0"/>
		<rect x="120" y="202" width="48" height="68" fill="none" stroke="#f46d43" stroke-width="2"/>
		<line x1="120" y1="227" x2="168" y2="227" stroke="#f46d43" stroke-width="1"/>
	</g>
	<text x="125" y="219.7" fill="#000000" font-family="Verdana" font-size="12">LABEL</text>
	<text x="125" y="244.8" fill="#000000" font-family="Verdana" font-size="12">name</text>
	<line x1="125" y1="247" x2="160" y2="247" stroke="#000000" stroke-width="1"/>
	<text x="125" y="261.8" fill="#000000" font-family="Verdana" font-size="12">color</text>
</g>
</svg>